<svg xmlns="http://www.w3.org/2000/svg" viewBox="0 0 96 120" x="0px" y="0px"><title>Artboard 30</title><g><path d="M48.32,26.82a21.9389,21.9389,0,0,1,5.0469-6.9375,25.7468,25.7468,0,0,1,15.0217-6.4094A21.7881,21.7881,0,0,0,54,8H42a21.7763,21.7763,0,0,0-14.26,5.3721c6.835.488,12.03,2.4328,15.7369,5.9092A18.9194,18.9194,0,0,1,48.32,26.82Z"/><path d="M71.36,49.36A34.3183,34.3183,0,0,1,64,55v7c0,10.64,3.36,17.48,12,24.08V43.32A27.65,27.65,0,0,1,71.36,49.36Z"/><path d="M60,62V57.08A31.4476,31.4476,0,0,1,48,60c-6.2,0-16.16-3.28-23.36-10.52A27.5706,27.5706,0,0,1,20,43.4V46A42.0463,42.0463,0,0,0,62,88H72C63.48,80.96,60,73.28,60,62Z"/><path d="M48,56c8,0,28-8,27.9363-27.2581A21.8952,21.8952,0,0,0,71.8889,17.27c-6.5256.1125-11.9524,1.9807-15.8069,5.5466C52.1016,26.5,50,31.75,50,38a2,2,0,0,1-4,0c0-7.3086-1.7227-12.48-5.2617-15.8047-3.5105-3.29-9.085-4.9431-16.6167-4.9433a21.8961,21.8961,0,0,0-4.0579,11.49C20,48,39.5847,56,48,56ZM64,24a4,4,0,1,1-4,4A4,4,0,0,1,64,24ZM32,24a4,4,0,1,1-4,4A4,4,0,0,1,32,24Z"/></g><text x="0" y="111" fill="#000000" font-size="5px" font-weight="bold" font-family="'Helvetica Neue', Helvetica, Arial-Unicode, Arial, Sans-serif">Created by Deemak Daksina</text><text x="0" y="116" fill="#000000" font-size="5px" font-weight="bold" font-family="'Helvetica Neue', Helvetica, Arial-Unicode, Arial, Sans-serif">from the Noun Project</text></svg>