<svg width="307" height="311" xmlns="http://www.w3.org/2000/svg" xmlns:xlink="http://www.w3.org/1999/xlink" overflow="hidden"><defs><clipPath id="clip0"><rect x="903" y="35" width="307" height="311"/></clipPath><clipPath id="clip1"><path d="M909 190C909 109.919 973.919 45 1054 45 1134.08 45 1199 109.919 1199 190 1199 270.081 1134.08 335 1054 335 973.919 335 909 270.081 909 190Z" fill-rule="evenodd" clip-rule="evenodd"/></clipPath><clipPath id="clip2"><rect x="909" y="44" width="290" height="291"/></clipPath><clipPath id="clip3"><rect x="909" y="44" width="290" height="291"/></clipPath></defs><g clip-path="url(#clip0)" transform="translate(-903 -35)"><g clip-path="url(#clip1)"><g clip-path="url(#clip2)"><g clip-path="url(#clip3)"><path d="M1061.85 189.698C1060.95 194.833 1060.34 199.969 1060.34 205.104 1060.34 237.125 1079.98 264.615 1107.77 276.698 1121.36 257.667 1129.82 231.385 1129.82 202.083 1129.82 182.448 1125.9 167.646 1119.25 156.469 1107.47 174.594 1086.32 187.281 1061.85 189.698Z" stroke="#282828" stroke-width="2.53999" fill="#282828"/><path d="M1047.96 205.104C1047.96 199.667 1047.35 194.531 1046.45 189.698 1021.98 187.583 1001.14 174.896 989.052 156.771 982.406 167.948 978.479 182.75 978.479 202.385 978.479 231.385 986.938 257.667 1000.53 277 1028.62 264.615 1047.96 237.125 1047.96 205.104Z" stroke="#282828" stroke-width="2.53999" fill="#282828"/><path d="M1034.36 87.8958C1042.22 87.8958 1049.17 90.9167 1054.3 96.0521 1059.44 90.9167 1066.39 87.8958 1074.24 87.8958 1089.65 87.8958 1102.03 100.281 1102.03 115.385 1102.03 130.49 1089.65 142.875 1074.24 142.875 1070.92 142.875 1067.9 142.271 1064.88 141.365L1054 156.771 1043.43 141.062C1040.41 141.969 1037.39 142.573 1034.06 142.573 1018.66 142.573 1006.27 130.188 1006.27 115.083 1006.27 100.281 1018.96 87.8958 1034.36 87.8958ZM1054.3 177.917C1089.65 177.917 1118.04 152.844 1118.04 121.729 1118.04 115.385 1116.83 109.042 1114.42 103.604 1114.72 103 1114.72 102.094 1114.72 101.188L1115.93 77.3229C1115.62 74.3021 1112.6 72.1875 1109.58 72.4896L1086.02 79.4375C1086.02 79.4375 1086.02 79.4375 1085.72 79.4375 1078.17 77.625 1067.9 76.4167 1054 76.4167 1040.41 76.4167 1030.14 77.625 1022.28 79.4375L1021.98 79.4375 999.021 72.1875C996 71.8854 992.979 74 992.677 77.0208L993.885 100.885C993.885 101.792 993.885 102.396 994.188 103.302 992.073 109.042 990.562 115.083 990.562 121.427 990.562 152.844 1018.96 177.917 1054.3 177.917Z" stroke="#282828" stroke-width="2.53999" fill="#282828"/><path d="M1086.32 115.385C1086.32 121.892 1080.91 127.167 1074.24 127.167 1067.57 127.167 1062.16 121.892 1062.16 115.385 1062.16 108.879 1067.57 103.604 1074.24 103.604 1080.91 103.604 1086.32 108.879 1086.32 115.385Z" stroke="#282828" stroke-width="2.53999" fill="#282828"/><path d="M1046.45 115.385C1046.45 121.892 1041.04 127.167 1034.36 127.167 1027.69 127.167 1022.28 121.892 1022.28 115.385 1022.28 108.879 1027.69 103.604 1034.36 103.604 1041.04 103.604 1046.45 108.879 1046.45 115.385Z" stroke="#282828" stroke-width="2.53999" fill="#282828"/><path d="M1023.79 310.833C1027.11 310.833 1029.83 302.073 1029.83 298.75 1029.83 295.427 1027.11 292.708 1023.79 292.708 1021.98 292.708 1020.47 293.615 1019.26 294.823 1018.05 293.615 1016.54 292.708 1014.73 292.708 1012.92 292.708 1011.41 293.615 1010.2 294.823 1008.99 293.615 1007.48 292.708 1005.67 292.708 1002.34 292.708 999.625 295.427 999.625 298.75 999.625 302.073 1002.34 310.833 1005.67 310.833 1007.48 310.833 1008.99 308.115 1010.2 305.396 1011.41 308.417 1012.92 310.833 1014.73 310.833 1016.54 310.833 1018.05 308.115 1019.26 305.396 1020.47 308.115 1021.98 310.833 1023.79 310.833Z" stroke="#282828" stroke-width="2.53999" fill="#282828"/><path d="M1084.21 280.625C1085.72 280.625 1087.23 280.927 1088.74 281.229 1089.04 281.229 1089.65 280.927 1089.95 280.927 1073.94 270.656 1061.25 255.552 1054 237.427 1047.05 255.25 1034.36 270.656 1018.05 280.927 1018.35 280.927 1018.66 280.927 1018.96 281.229 1020.47 280.927 1021.98 280.625 1023.49 280.625 1033.46 280.625 1041.61 288.781 1041.61 298.75 1041.61 300.562 1041.31 303.281 1040.41 306 1044.64 307.208 1049.17 307.812 1053.7 307.812 1058.23 307.812 1062.46 307.208 1066.69 306.302 1065.78 303.281 1065.48 300.562 1065.48 298.75 1066.08 288.781 1074.24 280.625 1084.21 280.625Z" stroke="#282828" stroke-width="2.53999" fill="#282828"/><path d="M1102.33 292.708C1100.52 292.708 1099.01 293.615 1097.8 294.823 1096.59 293.615 1095.08 292.708 1093.27 292.708 1091.46 292.708 1089.95 293.615 1088.74 294.823 1087.53 293.615 1086.02 292.708 1084.21 292.708 1080.89 292.708 1078.17 295.427 1078.17 298.75 1078.17 302.073 1080.89 310.833 1084.21 310.833 1086.02 310.833 1087.53 308.115 1088.74 305.396 1089.95 308.417 1091.46 310.833 1093.27 310.833 1095.08 310.833 1096.59 308.115 1097.8 305.396 1099.01 308.417 1100.52 310.833 1102.33 310.833 1105.66 310.833 1108.38 302.073 1108.38 298.75 1108.38 295.427 1105.66 292.708 1102.33 292.708Z" stroke="#282828" stroke-width="2.53999" fill="#282828"/></g></g></g><path d="M906 190C906 106.053 973.157 38 1056 38 1138.84 38 1206 106.053 1206 190 1206 273.947 1138.84 342 1056 342 973.157 342 906 273.947 906 190Z" stroke="#282828" stroke-width="6" stroke-miterlimit="8" fill="none" fill-rule="evenodd"/></g></svg>