<svg width="267" height="267" xmlns="http://www.w3.org/2000/svg" xmlns:xlink="http://www.w3.org/1999/xlink" overflow="hidden"><defs><clipPath id="clip0"><rect x="385" y="174" width="267" height="267"/></clipPath><clipPath id="clip1"><path d="M396 307C396 239.621 450.621 185 518 185 585.379 185 640 239.621 640 307 640 374.379 585.379 429 518 429 450.621 429 396 374.379 396 307Z" fill-rule="evenodd" clip-rule="evenodd"/></clipPath><clipPath id="clip2"><rect x="396" y="184" width="244" height="245"/></clipPath><clipPath id="clip3"><rect x="396" y="184" width="244" height="245"/></clipPath></defs><g clip-path="url(#clip0)" transform="translate(-385 -174)"><g clip-path="url(#clip1)"><g clip-path="url(#clip2)"><g clip-path="url(#clip3)"><path d="M610.771 314.625C605.179 314.625 600.35 316.15 596.283 318.183 572.138 330.892 545.958 339.279 519.017 339.788 516.475 339.788 514.188 339.788 511.646 339.788 471.742 340.042 435.142 332.163 406.167 318.946 406.167 328.35 412.013 336.992 420.908 340.296 423.45 341.312 426.246 342.075 428.788 343.092L426.5 356.308C425.483 361.9 429.296 366.983 434.888 368 435.396 368 435.904 368.254 436.667 368.254 441.496 368.254 445.817 364.696 446.579 359.867L448.358 348.683C467.929 353.258 489.025 355.8 511.392 355.8 524.354 355.8 536.808 355.038 548.754 353.513 550.025 353.258 551.042 353.258 552.312 353.004L553.583 360.121C554.346 365.204 558.667 368.508 563.496 368.508 564.004 368.508 564.513 368.508 565.275 368.254 570.867 367.237 574.679 362.154 573.662 356.562L572.646 351.225C585.354 350.208 598.062 350.208 610.517 350.208 610.517 350.208 610.517 350.208 610.771 350.208 621.192 350.208 629.833 342.329 629.833 332.417 629.833 322.504 621.192 314.625 610.771 314.625Z" fill="#44546A"/><path d="M518.763 329.875C538.079 329.367 557.904 324.792 578.237 315.896 572.392 276.246 538.588 246 497.667 246 457.763 246 424.467 274.721 417.604 312.846 444.8 324.029 477.842 329.875 511.646 329.875 513.933 329.875 516.475 329.875 518.763 329.875Z" fill="#44546A"/></g></g></g><path d="M389 307.5C389 235.979 446.979 178 518.5 178 590.021 178 648 235.979 648 307.5 648 379.021 590.021 437 518.5 437 446.979 437 389 379.021 389 307.5Z" stroke="#44546A" stroke-width="6" stroke-miterlimit="8" fill="none" fill-rule="evenodd"/></g></svg>